<svg xmlns="http://www.w3.org/2000/svg" xmlns:xlink="http://www.w3.org/1999/xlink" width="42.657" height="40" viewBox="0 0 42.657 40"><defs><style>.a{fill:url(#a);}</style><linearGradient id="a" x1="-0.005" y1="0.194" x2="0.953" y2="0.784" gradientUnits="objectBoundingBox"><stop offset="0.003" stop-color="#5242d6"/><stop offset="0.414" stop-color="#ec45b9"/><stop offset="1" stop-color="#ffb65f"/></linearGradient></defs><path class="a" d="M-796.056,271.314a2.985,2.985,0,0,1-1.463-.493,3.013,3.013,0,0,0-3.57-.805c-1.343.6-1.28,1.816-1.26,3.051a2.41,2.41,0,0,1-2.876,2.575,3.177,3.177,0,0,1-3.2-2.968c-.03-1.789,1.137-2.926,3.151-3.074,1.814-.133,2.776-1.026,2.768-2.568a2.691,2.691,0,0,0-2.557-2.693c-1.638-.115-2.491.637-2.817,2.483-.389,2.2-1.051,2.865-3.252,3a2.221,2.221,0,0,0-2.4,2.46,3.809,3.809,0,0,1-.677,1.942,2.83,2.83,0,0,1-3.394.862,2.924,2.924,0,0,1-1.929-3.1,2.1,2.1,0,0,0-1.874-2.241c-1.3-.244-2.561.079-2.979,1.335a3.9,3.9,0,0,0,.3,2.915c.343.571,1.516.735,2.355.9a2.943,2.943,0,0,1,2.661,3.211c-.052,1.775-.954,2.566-3.191,2.8-1.675.175-2.64,1.129-2.51,2.605a2.3,2.3,0,0,0,2.58,2.328c2.8.021,3.29.556,3.483,3.473a2.3,2.3,0,0,0,2.48,2.438,2.517,2.517,0,0,0,2.727-2.292,2.373,2.373,0,0,0-1.918-2.937A7.513,7.513,0,0,1-818,285.453c-1.038-.767-1.784-1.891-1.125-3.25a2.828,2.828,0,0,1,3.226-1.7,2.669,2.669,0,0,1,2.418,2.678c.021,2.038.909,2.858,2.926,2.911a2.722,2.722,0,0,1,2.626,2.84,2.9,2.9,0,0,1-2.671,3.012c-3.178.444-3.941,2.356-1.966,4.929.29.377.585.75.881,1.123a16.479,16.479,0,0,0,18.275,5.433,16.519,16.519,0,0,0,11.281-15.743A16.631,16.631,0,0,0-796.056,271.314Zm-14.246,9.777c-1.989.013-3.55-1.29-3.527-2.944A3.057,3.057,0,0,1-810.913,275a3.342,3.342,0,0,1,3.07,3.468A2.354,2.354,0,0,1-810.3,281.091Zm12.61,6.116c1.394,1.418,1.546,3.446.343,4.582a3.057,3.057,0,0,1-4.288.1,3.342,3.342,0,0,1,.351-4.619A2.354,2.354,0,0,1-797.692,287.207Zm-7.618-.737a2.856,2.856,0,0,1-2.9-2.557,3.483,3.483,0,0,1,3.473-3.115,2.412,2.412,0,0,1,2.382,2.528A3.042,3.042,0,0,1-805.31,286.47Zm-1.1,11.8a2.856,2.856,0,0,1-2.9-2.557,3.484,3.484,0,0,1,3.473-3.115,2.413,2.413,0,0,1,2.382,2.528A3.042,3.042,0,0,1-806.413,298.275Zm7.342-16.747a3.332,3.332,0,0,1-3.493-3.283,4.054,4.054,0,0,1,3.912-3.858,3.308,3.308,0,0,1,3.459,3.3A3.887,3.887,0,0,1-799.071,281.527Z" transform="translate(824.785 -264.328)"/></svg>