<svg xmlns="http://www.w3.org/2000/svg" width="24" height="24" viewBox="0 0 24 24"><defs><style>.a{fill:#f6b500;stroke:#fff;}.b{fill:#fff;}.c{stroke:none;}.d{fill:none;}</style></defs><g transform="translate(-335 -282)"><g class="a" transform="translate(335 282)"><circle class="c" cx="12" cy="12" r="12"/><circle class="d" cx="12" cy="12" r="11.5"/></g><g transform="translate(175.801 147.2)"><path class="b" d="M165.2,648.4v.944c0,1.721,2.71,3.119,6.051,3.119s6.048-1.4,6.051-3.119V648.4c-1.131,1.24-3.389,2.07-6.051,2.07S166.329,649.64,165.2,648.4Z" transform="translate(0 -498.809)"/><path class="b" d="M176.223,489.264l-.047.026c-.158.094-.324.182-.5.267-.087.042-.178.08-.268.12-.128.055-.258.109-.393.159-.094.035-.187.069-.284.1-.18.061-.365.114-.554.165-.064.017-.125.036-.191.052-.236.057-.481.107-.731.149-.087.016-.175.026-.263.04-.2.029-.4.052-.6.071-.087.009-.173.017-.262.023-.287.021-.578.035-.878.035s-.591-.014-.878-.035l-.262-.023c-.2-.019-.4-.043-.6-.071-.088-.012-.177-.024-.265-.04-.248-.042-.492-.092-.726-.149-.068-.017-.132-.036-.2-.054-.189-.05-.374-.1-.552-.165-.1-.033-.191-.068-.284-.1-.135-.05-.265-.1-.393-.159-.09-.04-.182-.078-.268-.12-.173-.083-.341-.173-.5-.267l-.048-.026a4.848,4.848,0,0,1-1.079-.862v.946a1.837,1.837,0,0,0,.374,1.069l.021.029a2.688,2.688,0,0,0,.171.211.308.308,0,0,0,.023.024,4.068,4.068,0,0,0,1.008.771l.083.047c.081.043.165.085.251.126.045.023.092.043.139.064.081.036.163.073.246.106.059.024.118.047.178.069.08.029.159.061.242.088s.165.052.248.078.2.059.3.087c.12.033.242.062.367.092.066.014.133.028.2.04.1.021.21.042.317.061.069.012.14.023.211.033.111.016.222.031.334.045.069.009.139.016.21.023.123.012.249.021.376.029l.182.012c.189.009.379.016.572.016s.383-.005.572-.016l.182-.012c.126-.009.251-.017.376-.029l.21-.023c.113-.014.223-.028.334-.045.071-.01.142-.021.211-.033.107-.017.213-.038.317-.061.068-.014.135-.026.2-.04.125-.028.246-.059.367-.092.1-.028.2-.055.3-.087.083-.026.168-.05.248-.078s.163-.059.242-.088c.061-.022.12-.045.178-.069.085-.035.166-.069.246-.106l.139-.064c.085-.042.17-.083.251-.126l.083-.047a4.068,4.068,0,0,0,1.008-.771l.024-.026a2.677,2.677,0,0,0,.171-.21c.007-.01.014-.021.021-.029a1.841,1.841,0,0,0,.374-1.069V488.4a4.665,4.665,0,0,1-1.077.862h0Z" transform="translate(0 -341.58)"/><path class="b" d="M177.3,143.923c0-1.725-2.709-3.123-6.051-3.123s-6.051,1.4-6.051,3.123V145a1.837,1.837,0,0,0,.374,1.069l.021.029a2.694,2.694,0,0,0,.171.211.305.305,0,0,0,.023.024,4.069,4.069,0,0,0,1.008.771l.083.047c.081.043.165.085.251.126.045.023.09.043.137.064.081.036.163.073.248.107.057.024.118.045.177.068.081.031.161.061.244.09s.163.052.246.076.149.047.227.068l.009,0c.023.007.047.012.071.017.118.031.237.062.36.09l.08.017.057.01c.021,0,.042.007.062.012.1.021.21.042.317.061.036.007.071.014.109.019l.106.014c.109.016.22.031.331.043l.133.017c.028,0,.055,0,.083.007.121.012.244.021.369.029.048,0,.094.009.142.01a.39.39,0,0,1,.045,0c.187.009.376.014.568.014s.381-.005.568-.014a.39.39,0,0,0,.045,0c.048,0,.094-.007.142-.01.125-.009.248-.017.369-.029.028,0,.055,0,.083-.007l.133-.017c.111-.014.222-.028.331-.043l.106-.014c.036-.005.073-.014.109-.019.107-.017.213-.038.317-.061.021,0,.042-.007.061-.012s.04-.007.061-.012l.08-.017c.123-.028.242-.059.36-.09.023-.007.049-.012.071-.017l.009,0c.078-.021.151-.045.227-.068s.166-.05.246-.076.163-.059.244-.09l.177-.068c.085-.035.166-.071.248-.107.047-.021.092-.043.137-.064.085-.042.17-.083.251-.126l.083-.047a4.07,4.07,0,0,0,1.008-.771l.024-.026a2.68,2.68,0,0,0,.171-.21c.007-.01.014-.021.021-.029a1.841,1.841,0,0,0,.374-1.069v-1.074Z" transform="translate(0)"/></g></g></svg>