<svg xmlns="http://www.w3.org/2000/svg" xmlns:xlink="http://www.w3.org/1999/xlink" width="28.524" height="30.5" viewBox="0 0 28.524 30.5"><defs><style>.a{fill:url(#a);}</style><linearGradient id="a" y1="0.14" x2="0.935" y2="0.737" gradientUnits="objectBoundingBox"><stop offset="0" stop-color="#df1df6"/><stop offset="1" stop-color="#7415f0"/></linearGradient></defs><path class="a" d="M22.487,5.717a3.3,3.3,0,0,1,1.627.4,4.669,4.669,0,0,1,1.232.973,4.316,4.316,0,0,1,.791,1.247,3.192,3.192,0,0,1,.274,1.186V26.7a3.487,3.487,0,0,1-.35,1.581,3.787,3.787,0,0,1-.912,1.186,4.322,4.322,0,0,1-1.262.76,3.814,3.814,0,0,1-1.4.274H7.5a2.9,2.9,0,0,1-1.262-.334,5.333,5.333,0,0,1-1.277-.882,5,5,0,0,1-.988-1.262,2.956,2.956,0,0,1-.4-1.444V9.64a3.249,3.249,0,0,1,.3-1.323,5.278,5.278,0,0,1,.791-1.262A4.414,4.414,0,0,1,5.793,6.1a2.578,2.578,0,0,1,1.338-.38H22.487ZM20.693,24.722a1.871,1.871,0,0,0,1.353-.547,1.8,1.8,0,0,0,.563-1.338,1.921,1.921,0,0,0-1.916-1.916H9.29a1.921,1.921,0,0,0-1.916,1.916,1.8,1.8,0,0,0,.563,1.338,1.871,1.871,0,0,0,1.353.547Zm0-7.6a1.871,1.871,0,0,0,1.353-.547,1.8,1.8,0,0,0,.563-1.338,1.921,1.921,0,0,0-1.916-1.916H9.29a1.921,1.921,0,0,0-1.916,1.916,1.8,1.8,0,0,0,.563,1.338,1.871,1.871,0,0,0,1.353.547ZM26.076,0a4.066,4.066,0,0,1,2.4.775,7.937,7.937,0,0,1,1.9,1.916A9.759,9.759,0,0,1,31.64,5.154,7.477,7.477,0,0,1,32.1,7.572V23.719a1.97,1.97,0,0,1-.38,1.171,3.778,3.778,0,0,1-.927.912,5.042,5.042,0,0,1-1.186.608,3.543,3.543,0,0,1-1.186.228H28.3V8.484a5.474,5.474,0,0,0-1.308-3.223A5.069,5.069,0,0,0,24.16,3.8H9.32a.522.522,0,0,0,.03-.213,2.506,2.506,0,0,1,.365-1.247,4.479,4.479,0,0,1,.958-1.156A5.468,5.468,0,0,1,12,.335,3.477,3.477,0,0,1,13.456,0h12.62Z" transform="translate(-3.573)"/></svg>