<svg xmlns="http://www.w3.org/2000/svg" width="18.561" height="22.912" viewBox="0 0 18.561 22.912">
  <g id="组_1" data-name="组 1" transform="translate(-133.632 -51.2)">
    <path id="路径_1" data-name="路径 1" d="M263.98,345.6h-7.752a.739.739,0,0,0,0,1.479h7.752a.739.739,0,0,0,0-1.479Zm-2.49,4.7h-5.263a.739.739,0,1,0,0,1.479h5.263a.739.739,0,1,0,0-1.479Z" transform="translate(-118.923 -287.313)" fill="#96aee8"/>
    <path id="路径_2" data-name="路径 2" d="M149.173,68.948V53.418a2.225,2.225,0,0,0-2.218-2.218h-11.1a2.225,2.225,0,0,0-2.218,2.218V68.948a2.225,2.225,0,0,0,2.218,2.218h11.1A2.225,2.225,0,0,0,149.173,68.948Zm-14.062,0V53.418a.742.742,0,0,1,.739-.739h11.1a.742.742,0,0,1,.739.739V68.948a.742.742,0,0,1-.739.739h-11.1A.742.742,0,0,1,135.111,68.948Z" fill="#96aee8"/>
    <path id="路径_3" data-name="路径 3" d="M328.838,309.248a.742.742,0,0,0-.74.739v13.545a.936.936,0,0,1-.937.937H316.131a.739.739,0,0,0,0,1.479h11.031a2.42,2.42,0,0,0,2.416-2.416V309.987A.742.742,0,0,0,328.838,309.248Z" transform="translate(-177.385 -251.836)" fill="#96aee8"/>
  </g>
</svg>
