<svg xmlns="http://www.w3.org/2000/svg" xmlns:xlink="http://www.w3.org/1999/xlink" width="56" height="52.703" viewBox="0 0 56 52.703"><defs><style>.a{fill:url(#a);}</style><linearGradient id="a" y1="0.14" x2="0.935" y2="0.737" gradientUnits="objectBoundingBox"><stop offset="0" stop-color="#df1df6"/><stop offset="1" stop-color="#7415f0"/></linearGradient></defs><path class="a" d="M44.415,38.562h3.218a1.907,1.907,0,0,1,1.93,1.881v.089a1.907,1.907,0,0,1-1.93,1.881H42.495a1.907,1.907,0,0,1-1.93-1.881V35.3a1.874,1.874,0,0,1,.965-1.631,1.976,1.976,0,0,1,1.93,0,1.874,1.874,0,0,1,.965,1.631v3.261ZM42.824,49.409a10.577,10.577,0,0,0,9.882-9.882,10.577,10.577,0,0,0-9.882-9.882,10.577,10.577,0,0,0-9.882,9.882,10.577,10.577,0,0,0,9.882,9.882Zm.3,3.294A12.846,12.846,0,1,1,56,39.857,12.846,12.846,0,0,1,43.127,52.7ZM3.3,19.764H49.412V9.882a3.35,3.35,0,0,0-3.294-3.294H39.53v6.588c0,1.265-3.192,1.176-3.294,0V6.588H16.472v6.588c0,1.034-3.5,1.136-3.294,0V6.588H6.591A3.35,3.35,0,0,0,3.3,9.882v9.882Zm32.94-16.47V0H39.53V3.294h6.588a6.664,6.664,0,0,1,6.664,6.99V23.13L3.3,23.058V42.821a3.353,3.353,0,0,0,3.294,3.294H26.354v3.294H6.591A5.623,5.623,0,0,1,0,43.7V10.284A7.075,7.075,0,0,1,7.081,3.212l6.1.082V0h3.294V3.294M9.885,29.646h9.882c2.764,0,4.042,3.294,0,3.294H9.885C5.8,32.94,7.091,29.646,9.885,29.646Zm0,9.882h9.882c2.694,0,1.9,3.294,0,3.294H9.885C7.984,42.821,7.19,39.528,9.885,39.528Zm0,0" transform="translate(0)"/></svg>