<svg xmlns="http://www.w3.org/2000/svg" width="26" height="24.84" viewBox="0 0 26 24.84"><defs><style>.a{fill:#cc1cf7;}</style></defs><path class="a" d="M55.667,42.643a12.7,12.7,0,0,0-4.113,24.818c.65.118.886-.272.886-.615V64.683c-3.616.768-4.385-1.7-4.385-1.7a3.38,3.38,0,0,0-1.442-1.867c-1.182-.78.095-.768.095-.768a2.73,2.73,0,0,1,1.985,1.312,2.8,2.8,0,0,0,3.782,1.052,2.754,2.754,0,0,1,.827-1.7c-2.884-.319-5.909-1.406-5.909-6.287a4.9,4.9,0,0,1,1.312-3.439,4.467,4.467,0,0,1,.13-3.356s1.1-.343,3.545,1.3a12.622,12.622,0,0,1,6.5,0c2.482-1.643,3.545-1.3,3.545-1.3a4.467,4.467,0,0,1,.13,3.356A4.9,4.9,0,0,1,63.939,54.7c0,4.893-3.049,5.968-5.909,6.287a2.954,2.954,0,0,1,.886,2.364v3.486c0,.414.236.745.886.615a12.7,12.7,0,0,0-4.136-24.806" transform="translate(-42.667 -42.642)"/></svg>