<svg xmlns="http://www.w3.org/2000/svg" xmlns:xlink="http://www.w3.org/1999/xlink" width="24.663" height="24.667" viewBox="0 0 24.663 24.667"><defs><style>.a{fill:url(#a);}</style><linearGradient id="a" y1="0.14" x2="0.935" y2="0.737" gradientUnits="objectBoundingBox"><stop offset="0" stop-color="#df1df6"/><stop offset="1" stop-color="#7415f0"/></linearGradient></defs><path class="a" d="M87.4,86.2A12.327,12.327,0,0,0,78.255,65.78a1.146,1.146,0,0,0-.338,0,12.325,12.325,0,0,0-12.14,12.16,1.145,1.145,0,0,0,0,.283,12.328,12.328,0,0,0,21.044,8.6q.254-.254.491-.521a.521.521,0,0,0,.087-.1ZM66.919,78.648H72.1a23.581,23.581,0,0,0,.622,5.031,11.381,11.381,0,0,0-3.345,1.434A11.142,11.142,0,0,1,66.919,78.648Zm2.443-7.531a11.259,11.259,0,0,0,3.352,1.444,23.571,23.571,0,0,0-.614,4.957H66.921A11.141,11.141,0,0,1,69.362,71.117Zm19.923,6.4H84.106a23.573,23.573,0,0,0-.614-4.955,11.4,11.4,0,0,0,3.358-1.437A11.141,11.141,0,0,1,89.285,77.517Zm-6.309,0H78.652v-4.31a21.486,21.486,0,0,0,3.737-.388A22.433,22.433,0,0,1,82.975,77.517Zm-4.323-5.442V66.987c1.018.287,2.01,1.359,2.788,3.039a13.9,13.9,0,0,1,.648,1.7A20.447,20.447,0,0,1,78.652,72.076ZM77.521,67v5.077a20.188,20.188,0,0,1-3.4-.354,13.9,13.9,0,0,1,.647-1.695C75.535,68.365,76.515,67.3,77.521,67Zm0,6.209v4.311h-4.29a22.431,22.431,0,0,1,.587-4.7A21.385,21.385,0,0,0,77.521,73.206ZM73.23,78.648h4.291v4.383a21.419,21.419,0,0,0-3.7.39A22.442,22.442,0,0,1,73.23,78.648Zm4.291,5.515v5.053c-1.006-.3-1.985-1.368-2.754-3.029a13.867,13.867,0,0,1-.64-1.673A20.388,20.388,0,0,1,77.521,84.163Zm1.131,5.063V84.161a20.267,20.267,0,0,1,3.429.35,13.877,13.877,0,0,1-.641,1.676C80.662,87.866,79.669,88.938,78.652,89.225Zm0-6.2V78.648h4.324a22.448,22.448,0,0,1-.592,4.765A21.469,21.469,0,0,0,78.652,83.03Zm5.456-4.382h5.18A11.141,11.141,0,0,1,86.839,85.1a11.339,11.339,0,0,0-3.351-1.433A23.59,23.59,0,0,0,84.107,78.648Zm1.985-8.378a10.6,10.6,0,0,1-2.9,1.2A11.284,11.284,0,0,0,81.039,67.3,11.2,11.2,0,0,1,86.092,70.27ZM75.167,67.3a11.276,11.276,0,0,0-2.154,4.163,10.679,10.679,0,0,1-2.889-1.2A11.2,11.2,0,0,1,75.167,67.3Zm-5.03,18.666a10.587,10.587,0,0,1,2.882-1.2,11.255,11.255,0,0,0,2.148,4.143A11.2,11.2,0,0,1,70.137,85.966Zm10.9,2.946a11.258,11.258,0,0,0,2.149-4.146,10.773,10.773,0,0,1,2.888,1.194A11.2,11.2,0,0,1,81.039,88.912Z" transform="translate(-65.768 -65.768)"/></svg>