<svg xmlns="http://www.w3.org/2000/svg" xmlns:xlink="http://www.w3.org/1999/xlink" width="104.055" height="40" viewBox="0 0 104.055 40"><defs><style>.a{fill:#fff;}.b{fill:url(#a);}</style><linearGradient id="a" x1="-0.005" y1="0.194" x2="0.953" y2="0.784" gradientUnits="objectBoundingBox"><stop offset="0.003" stop-color="#5242d6"/><stop offset="0.414" stop-color="#ec45b9"/><stop offset="1" stop-color="#ffb65f"/></linearGradient></defs><g transform="translate(824.785 -264.328)"><g transform="translate(-778.159 285.331)"><path class="a" d="M-560.818,390.419a5.78,5.78,0,0,1-2.424.48,6.326,6.326,0,0,1-2.31-.411,5.423,5.423,0,0,1-1.837-1.166,5.4,5.4,0,0,1-1.22-1.807,5.92,5.92,0,0,1-.442-2.317,5.913,5.913,0,0,1,.45-2.348,5.22,5.22,0,0,1,1.243-1.791,5.5,5.5,0,0,1,1.86-1.136,6.56,6.56,0,0,1,2.3-.4,6.506,6.506,0,0,1,2.249.4,4.308,4.308,0,0,1,1.792,1.181l-1.769,1.769a2.189,2.189,0,0,0-.96-.747,3.189,3.189,0,0,0-1.22-.244,3.088,3.088,0,0,0-1.258.252,2.946,2.946,0,0,0-.983.694,3.157,3.157,0,0,0-.64,1.044,3.688,3.688,0,0,0-.229,1.319,3.8,3.8,0,0,0,.229,1.342,3.119,3.119,0,0,0,.632,1.044,2.846,2.846,0,0,0,.968.679,3.078,3.078,0,0,0,1.235.244,2.872,2.872,0,0,0,1.357-.3,2.63,2.63,0,0,0,.93-.793l1.814,1.707A5.139,5.139,0,0,1-560.818,390.419Z" transform="translate(569.051 -379.526)"/><path class="a" d="M-505.3,390.419a5.78,5.78,0,0,1-2.424.48,6.325,6.325,0,0,1-2.31-.411,5.424,5.424,0,0,1-1.837-1.166,5.4,5.4,0,0,1-1.22-1.807,5.92,5.92,0,0,1-.442-2.317,5.913,5.913,0,0,1,.45-2.348,5.222,5.222,0,0,1,1.243-1.791,5.5,5.5,0,0,1,1.86-1.136,6.559,6.559,0,0,1,2.3-.4,6.507,6.507,0,0,1,2.249.4,4.309,4.309,0,0,1,1.791,1.181l-1.769,1.769a2.189,2.189,0,0,0-.96-.747,3.188,3.188,0,0,0-1.22-.244,3.089,3.089,0,0,0-1.258.252,2.949,2.949,0,0,0-.983.694,3.161,3.161,0,0,0-.64,1.044,3.688,3.688,0,0,0-.229,1.319,3.8,3.8,0,0,0,.229,1.342,3.12,3.12,0,0,0,.633,1.044,2.843,2.843,0,0,0,.968.679,3.078,3.078,0,0,0,1.235.244,2.872,2.872,0,0,0,1.357-.3,2.633,2.633,0,0,0,.93-.793l1.814,1.707A5.139,5.139,0,0,1-505.3,390.419Z" transform="translate(523.651 -379.526)"/><path class="a" d="M-454.151,399.822a2.788,2.788,0,0,0-.717-.488,1.979,1.979,0,0,0-.869-.2,1.529,1.529,0,0,0-.648.137.481.481,0,0,0-.3.473.47.47,0,0,0,.328.457,7.133,7.133,0,0,0,1.06.305,5.718,5.718,0,0,1,.861.259,3.051,3.051,0,0,1,.785.442,2.118,2.118,0,0,1,.564.671,1.969,1.969,0,0,1,.214.945,2.365,2.365,0,0,1-.29,1.212,2.372,2.372,0,0,1-.755.8,3.254,3.254,0,0,1-1.044.442,5.011,5.011,0,0,1-1.159.137,5.726,5.726,0,0,1-1.822-.3,3.822,3.822,0,0,1-1.486-.877l1.4-1.479a2.792,2.792,0,0,0,.823.61,2.287,2.287,0,0,0,1.037.244,1.359,1.359,0,0,0,.6-.145.52.52,0,0,0,.3-.511.547.547,0,0,0-.366-.518,6.575,6.575,0,0,0-1.143-.351,5.907,5.907,0,0,1-.793-.244,2.505,2.505,0,0,1-.709-.412,2.042,2.042,0,0,1-.511-.64,1.958,1.958,0,0,1-.2-.915,2.219,2.219,0,0,1,.29-1.166,2.454,2.454,0,0,1,.747-.785,3.324,3.324,0,0,1,1.014-.45,4.379,4.379,0,0,1,1.105-.145,5.342,5.342,0,0,1,1.669.267,3.609,3.609,0,0,1,1.38.8Z" transform="translate(479.413 -394.09)"/><path class="a" d="M-411.911,406.267h-2.515l-1.494-4.726h-.03l-1.464,4.726h-2.515l-2.622-7.592h2.7l1.311,4.8h.046l1.357-4.8h2.516l1.4,4.8h.031l1.326-4.8h2.592Z" transform="translate(449.262 -395.184)"/><path class="a" d="M-348.268,398.618a4.374,4.374,0,0,1,1.563-.96,5.352,5.352,0,0,1,1.822-.32,4.871,4.871,0,0,1,1.624.236,2.423,2.423,0,0,1,1.075.732,3.122,3.122,0,0,1,.6,1.25,7.386,7.386,0,0,1,.191,1.791v3.827h-2.287v-.808h-.046a1.881,1.881,0,0,1-.877.732,3.117,3.117,0,0,1-1.273.259,3.892,3.892,0,0,1-.945-.122,2.758,2.758,0,0,1-.892-.4,2.143,2.143,0,0,1-.663-.732,2.257,2.257,0,0,1-.259-1.128,1.916,1.916,0,0,1,.45-1.326,2.952,2.952,0,0,1,1.159-.778,6.138,6.138,0,0,1,1.578-.366,16.136,16.136,0,0,1,1.692-.092v-.122a.932.932,0,0,0-.4-.831,1.711,1.711,0,0,0-.976-.267,2.426,2.426,0,0,0-1.029.229,3.281,3.281,0,0,0-.846.549Zm4.589,3.247H-344q-.412,0-.831.038a3.426,3.426,0,0,0-.747.145,1.381,1.381,0,0,0-.541.313.718.718,0,0,0-.213.541.654.654,0,0,0,.1.366.764.764,0,0,0,.252.244,1.058,1.058,0,0,0,.351.13,2.009,2.009,0,0,0,.381.038,1.545,1.545,0,0,0,1.166-.419,1.568,1.568,0,0,0,.4-1.136Z" transform="translate(388.821 -394.09)"/><path class="a" d="M-291.941,401.483a4.787,4.787,0,0,1-.244,1.525,3.92,3.92,0,0,1-.709,1.288,3.5,3.5,0,0,1-1.136.892,3.364,3.364,0,0,1-1.524.335,3.191,3.191,0,0,1-1.326-.282,2.367,2.367,0,0,1-.976-.77h-.03v4.5h-2.5V397.717h2.378v.93h.046a3.077,3.077,0,0,1,.968-.8,2.95,2.95,0,0,1,1.456-.343,3.424,3.424,0,0,1,1.494.32,3.375,3.375,0,0,1,1.136.869,3.955,3.955,0,0,1,.717,1.273A4.591,4.591,0,0,1-291.941,401.483Zm-2.424,0a2.3,2.3,0,0,0-.114-.717,1.871,1.871,0,0,0-.335-.617,1.7,1.7,0,0,0-.557-.434,1.718,1.718,0,0,0-.777-.168,1.681,1.681,0,0,0-.762.168,1.818,1.818,0,0,0-.572.442,2.017,2.017,0,0,0-.366.625,2.052,2.052,0,0,0-.13.717,2.051,2.051,0,0,0,.13.717,2.018,2.018,0,0,0,.366.625,1.815,1.815,0,0,0,.572.442,1.676,1.676,0,0,0,.762.168,1.713,1.713,0,0,0,.777-.168,1.652,1.652,0,0,0,.557-.442,1.944,1.944,0,0,0,.335-.633A2.369,2.369,0,0,0-294.365,401.483Z" transform="translate(349.37 -394.226)"/></g><g transform="translate(-824.785 264.328)"><path class="b" d="M-796.056,271.314a2.985,2.985,0,0,1-1.463-.493,3.013,3.013,0,0,0-3.57-.805c-1.343.6-1.28,1.816-1.26,3.051a2.41,2.41,0,0,1-2.876,2.575,3.177,3.177,0,0,1-3.2-2.968c-.03-1.789,1.137-2.926,3.151-3.074,1.814-.133,2.776-1.026,2.768-2.568a2.691,2.691,0,0,0-2.557-2.693c-1.638-.115-2.491.637-2.817,2.483-.389,2.2-1.051,2.865-3.252,3a2.221,2.221,0,0,0-2.4,2.46,3.809,3.809,0,0,1-.677,1.942,2.83,2.83,0,0,1-3.394.862,2.924,2.924,0,0,1-1.929-3.1,2.1,2.1,0,0,0-1.874-2.241c-1.3-.244-2.561.079-2.979,1.335a3.9,3.9,0,0,0,.3,2.915c.343.571,1.516.735,2.355.9a2.943,2.943,0,0,1,2.661,3.211c-.052,1.775-.954,2.566-3.191,2.8-1.675.175-2.64,1.129-2.51,2.605a2.3,2.3,0,0,0,2.58,2.328c2.8.021,3.29.556,3.483,3.473a2.3,2.3,0,0,0,2.48,2.438,2.517,2.517,0,0,0,2.727-2.292,2.373,2.373,0,0,0-1.918-2.937A7.513,7.513,0,0,1-818,285.453c-1.038-.767-1.784-1.891-1.125-3.25a2.828,2.828,0,0,1,3.226-1.7,2.669,2.669,0,0,1,2.418,2.678c.021,2.038.909,2.858,2.926,2.911a2.722,2.722,0,0,1,2.626,2.84,2.9,2.9,0,0,1-2.671,3.012c-3.178.444-3.941,2.356-1.966,4.929.29.377.585.75.881,1.123a16.479,16.479,0,0,0,18.275,5.433,16.519,16.519,0,0,0,11.281-15.743A16.631,16.631,0,0,0-796.056,271.314Zm-14.246,9.777c-1.989.013-3.55-1.29-3.527-2.944A3.057,3.057,0,0,1-810.913,275a3.342,3.342,0,0,1,3.07,3.468A2.354,2.354,0,0,1-810.3,281.091Zm12.61,6.116c1.394,1.418,1.546,3.446.343,4.582a3.057,3.057,0,0,1-4.288.1,3.342,3.342,0,0,1,.351-4.619A2.354,2.354,0,0,1-797.692,287.207Zm-7.618-.737a2.856,2.856,0,0,1-2.9-2.557,3.483,3.483,0,0,1,3.473-3.115,2.412,2.412,0,0,1,2.382,2.528A3.042,3.042,0,0,1-805.31,286.47Zm-1.1,11.8a2.856,2.856,0,0,1-2.9-2.557,3.484,3.484,0,0,1,3.473-3.115,2.413,2.413,0,0,1,2.382,2.528A3.042,3.042,0,0,1-806.413,298.275Zm7.342-16.747a3.332,3.332,0,0,1-3.493-3.283,4.054,4.054,0,0,1,3.912-3.858,3.308,3.308,0,0,1,3.459,3.3A3.887,3.887,0,0,1-799.071,281.527Z" transform="translate(824.785 -264.328)"/></g></g></svg>