<svg xmlns="http://www.w3.org/2000/svg" width="23" height="22.549" viewBox="0 0 23 22.549"><defs><style>.a{fill:#cc1cf7;}</style></defs><g transform="translate(-82 -87.1)"><path class="a" d="M84.254,96.12a2.254,2.254,0,1,0,2.254,2.254A2.253,2.253,0,0,0,84.254,96.12Zm0,3.607a1.353,1.353,0,1,1,1.353-1.353A1.353,1.353,0,0,1,84.254,99.727Zm16.913-4.96A3.834,3.834,0,1,0,105,98.6,3.832,3.832,0,0,0,101.168,94.768Zm0,7.214a3.382,3.382,0,1,1,3.382-3.382A3.383,3.383,0,0,1,101.168,101.982ZM92.824,87.1a2.254,2.254,0,1,0,2.254,2.254A2.253,2.253,0,0,0,92.824,87.1Zm0,3.61a1.353,1.353,0,1,1,1.353-1.353A1.353,1.353,0,0,1,92.824,90.71Zm0,14.431a2.254,2.254,0,1,0,2.254,2.254,2.253,2.253,0,0,0-2.254-2.254Zm0,3.607a1.353,1.353,0,1,1,1.353-1.353A1.353,1.353,0,0,1,92.824,108.747Z"/><path class="a" d="M704.331,414a2.931,2.931,0,1,0,2.931,2.931A2.931,2.931,0,0,0,704.331,414Zm0,5.411a2.48,2.48,0,1,1,2.48-2.48A2.478,2.478,0,0,1,704.331,419.411Z" transform="translate(-603.163 -318.331)"/><path class="a" d="M182.576,202.032a2.029,2.029,0,1,0,2.029,2.029A2.031,2.031,0,0,0,182.576,202.032Zm0,3.156a1.127,1.127,0,1,1,1.127-1.127A1.127,1.127,0,0,1,182.576,205.188Zm-9.7-9.676-6.97,6.97h1.274l5.864-5.861h-.168Zm-7.28,9.676,7.28,7.28v-1.274l-6-6H165.6Zm15.775-4.485-5.788-5.3v1.222h-.045l4.868,4.4Zm-5.788,10.619v1.261l5.675-5.2-.965-.325Z" transform="translate(-81.409 -105.461)"/></g></svg>