<svg xmlns="http://www.w3.org/2000/svg" xmlns:xlink="http://www.w3.org/1999/xlink" width="16.917" height="26" viewBox="0 0 16.917 26"><defs><style>.a{fill:url(#a);}</style><linearGradient id="a" y1="0.14" x2="0.935" y2="0.737" gradientUnits="objectBoundingBox"><stop offset="0" stop-color="#df1df6"/><stop offset="1" stop-color="#7415f0"/></linearGradient></defs><g transform="translate(-214.609 -52.709)"><path class="a" d="M257.939,221.518v.421a3.092,3.092,0,0,1-1.546,2.683l-4.558,2.632a3.093,3.093,0,0,1-3.092,0l-5.721-3.3a.772.772,0,0,1-.387-.663.552.552,0,0,1,.427-.541l12.721-2.938a1.76,1.76,0,0,1,2.157,1.712Zm-15.3,17.377a1.342,1.342,0,0,1,.993-1.3l5.851-1.577a3.093,3.093,0,0,1,1.61,0l5.853,1.577a1.35,1.35,0,0,1,1,1.3,1.028,1.028,0,0,1-1.028,1.031H243.667A1.034,1.034,0,0,1,242.634,238.895Z" transform="translate(-27.221 -162.259)"/><path class="a" d="M228.363,52.709H217.771a3.162,3.162,0,0,0-3.162,3.164v5.118l.006.212a3.164,3.164,0,0,0,1.576,2.528l3.426,1.979-3.426,1.979a3.164,3.164,0,0,0-1.582,2.737v5.12a3.163,3.163,0,0,0,3.162,3.164h10.592a3.164,3.164,0,0,0,3.164-3.164V70.427l-.008-.212a3.164,3.164,0,0,0-1.574-2.528l-3.428-1.979,3.428-1.978a3.164,3.164,0,0,0,1.582-2.738v-5.12a3.164,3.164,0,0,0-3.164-3.164Zm-10.592,1.614h10.592a1.548,1.548,0,0,1,1.549,1.549v5.118a1.545,1.545,0,0,1-.773,1.342L224.5,65.009a.807.807,0,0,0,0,1.4l4.639,2.678a1.549,1.549,0,0,1,.773,1.342v5.118a1.548,1.548,0,0,1-1.549,1.549H217.771a1.549,1.549,0,0,1-1.549-1.549V70.427A1.548,1.548,0,0,1,217,69.085l4.639-2.678a.807.807,0,0,0,0-1.4L217,62.334a1.549,1.549,0,0,1-.773-1.342v-5.12a1.548,1.548,0,0,1,1.548-1.549Z" transform="translate(0)"/></g></svg>