<svg xmlns="http://www.w3.org/2000/svg" xmlns:xlink="http://www.w3.org/1999/xlink" width="35.652" height="35.652" viewBox="0 0 35.652 35.652"><defs><style>.a{fill:url(#a);}</style><linearGradient id="a" y1="0.14" x2="0.935" y2="0.737" gradientUnits="objectBoundingBox"><stop offset="0" stop-color="#df1df6"/><stop offset="1" stop-color="#7415f0"/></linearGradient></defs><path class="a" d="M93.519,14.253a3.486,3.486,0,0,1,1.387.285,3.494,3.494,0,0,1,1.9,1.9,3.486,3.486,0,0,1,.285,1.387,3.445,3.445,0,0,1-.285,1.406,3.654,3.654,0,0,1-.76,1.121,3.6,3.6,0,0,1-1.14.76,3.486,3.486,0,0,1-1.387.285H82.839v10.68a3.445,3.445,0,0,1-.285,1.406,3.654,3.654,0,0,1-.76,1.121,3.6,3.6,0,0,1-1.14.76,3.486,3.486,0,0,1-1.387.285,3.445,3.445,0,0,1-1.406-.285,3.594,3.594,0,0,1-1.881-1.881,3.445,3.445,0,0,1-.285-1.406V21.4H65.013a3.445,3.445,0,0,1-1.406-.285,3.594,3.594,0,0,1-1.881-1.881,3.445,3.445,0,0,1-.285-1.406,3.486,3.486,0,0,1,.285-1.387,3.6,3.6,0,0,1,.76-1.14,3.654,3.654,0,0,1,1.121-.76,3.445,3.445,0,0,1,1.406-.285h10.68V3.573a3.486,3.486,0,0,1,.285-1.387,3.6,3.6,0,0,1,.76-1.14A3.654,3.654,0,0,1,77.86.285a3.589,3.589,0,0,1,3.934.76,3.443,3.443,0,0,1,1.045,2.528v10.68Z" transform="translate(-61.44 0)"/></svg>