<svg xmlns="http://www.w3.org/2000/svg" xmlns:xlink="http://www.w3.org/1999/xlink" width="22.951" height="22.925" viewBox="0 0 22.951 22.925"><defs><style>.a{fill:url(#a);}</style><linearGradient id="a" y1="0.14" x2="0.935" y2="0.737" gradientUnits="objectBoundingBox"><stop offset="0" stop-color="#df1df6"/><stop offset="1" stop-color="#7415f0"/></linearGradient></defs><path class="a" d="M83.25,70.19V68.731a.934.934,0,0,1,.262-.689.967.967,0,0,1,1.344,0,1.049,1.049,0,0,1,.3.689v4.41a1.033,1.033,0,0,1-.951.951H79.758a1.033,1.033,0,0,1-.689-.3.967.967,0,0,1,0-1.344.918.918,0,0,1,.689-.262h2.787a9.541,9.541,0,0,0-11.607-1.934A9.41,9.41,0,0,0,66.725,74.8a9.59,9.59,0,0,0-.508,6.213,9.476,9.476,0,0,0,3.394,5.18,9.607,9.607,0,0,0,5.869,2.016,9.443,9.443,0,0,0,6.754-2.787,9.639,9.639,0,0,0,2.8-6.853h1.918a11.476,11.476,0,1,1-21.1-6.2,11.23,11.23,0,0,1,4.918-4.213,11.377,11.377,0,0,1,6.558-.82,11.672,11.672,0,0,1,5.9,2.853Z" transform="translate(-64.004 -67.173)"/></svg>