<svg xmlns="http://www.w3.org/2000/svg" width="24" height="24" viewBox="0 0 24 24"><defs><style>.a{fill:#19bdbd;stroke:#fff;}.b{fill:#fff;}.c{stroke:none;}.d{fill:none;}</style></defs><g class="a"><circle class="c" cx="12" cy="12" r="12"/><circle class="d" cx="12" cy="12" r="11.5"/></g><path class="b" d="M13.75,97.834H1.25a1.25,1.25,0,0,1,0-2.5h12.5a1.25,1.25,0,0,1,0,2.5Zm-12.5-7.5H7.5a1.25,1.25,0,0,1,0,2.5H1.25a1.25,1.25,0,0,1,0-2.5Zm12.5-2.5H1.25a1.25,1.25,0,0,1,0-2.5h12.5a1.25,1.25,0,0,1,0,2.5Z" transform="translate(5 -79.334)"/></svg>