<svg xmlns="http://www.w3.org/2000/svg" xmlns:xlink="http://www.w3.org/1999/xlink" width="22.318" height="24" viewBox="0 0 22.318 24"><defs><style>.a{fill:url(#a);}</style><linearGradient id="a" y1="0.14" x2="0.935" y2="0.737" gradientUnits="objectBoundingBox"><stop offset="0" stop-color="#df1df6"/><stop offset="1" stop-color="#7415f0"/></linearGradient></defs><g transform="translate(-36.381 -0.001)"><path class="a" d="M47.529,95.438A11.143,11.143,0,0,1,36.785,81.326a1.287,1.287,0,0,1,2.481.681,8.571,8.571,0,1,0,8.263-6.283,8.473,8.473,0,0,0-3.977.973,1.286,1.286,0,1,1-1.191-2.259,11.143,11.143,0,1,1,5.168,21Z" transform="translate(0 -71.437)"/><path class="a" d="M204.767,6.974h-1.286a.429.429,0,0,0-.429.429v5.267a.429.429,0,0,1-.429.429h-3.977a.429.429,0,0,0-.429.429v1.286a.429.429,0,0,0,.429.429h6.12a.429.429,0,0,0,.429-.429V7.4a.429.429,0,0,0-.429-.429Zm-3.857.536a1.286,1.286,0,0,1-.467-.086l-3.549-1.389a1.286,1.286,0,0,1-.729-1.667L197.554.82a1.286,1.286,0,0,1,2.4.934l-.943,2.353,2.353.921a1.286,1.286,0,0,1-.45,2.481Z" transform="translate(-155.952)"/></g></svg>