<svg xmlns="http://www.w3.org/2000/svg" width="20" height="20" viewBox="0 0 20 20"><defs><style>.a{fill:#cc1cf7;}</style></defs><path class="a" d="M20,9.912a9.973,9.973,0,0,0-2.644-6.686,10.138,10.138,0,0,0-1.525-1.352c-.189-.137-.385-.268-.584-.391A9.942,9.942,0,0,0,10.086,0H10A10.262,10.262,0,0,0,8.817.068,9.994,9.994,0,0,0,.027,9.244C.01,9.494,0,9.746,0,10a9.951,9.951,0,0,0,1.652,5.508,9.721,9.721,0,0,0,.939,1.209c.045.049.09.1.137.146a10,10,0,0,0,17.2-5.682c.025-.219.045-.441.057-.664.008-.172.014-.344.014-.516a.706.706,0,0,1,0-.09ZM15.356,7.09a1.407,1.407,0,0,0,.266-2.479v-.08a12.773,12.773,0,0,0-.066-1.289c.217.18.428.371.629.572A8.723,8.723,0,0,1,18.746,10a8.676,8.676,0,0,1-3.406-.688c-.2-.082-.385-.172-.572-.266A12.239,12.239,0,0,0,15.356,7.09Zm2.209,4.092a10.79,10.79,0,0,1-.9.676,11.2,11.2,0,0,1-1.884,1.023,11,11,0,0,1-3.238.82,12.374,12.374,0,0,0,2.708-3.514A9.943,9.943,0,0,0,17.565,11.182ZM14.3,3.215a10.9,10.9,0,0,1,.076,1.24A1.407,1.407,0,0,0,14.1,6.979a11.121,11.121,0,0,1-.418,1.41,8.794,8.794,0,0,1-1.123-.951,8.7,8.7,0,0,1-1.875-2.781c-.047-.111-.092-.225-.135-.338.18-.088.361-.17.547-.248A11.8,11.8,0,0,1,14.3,3.215ZM13.4,1.938c.082.035.164.07.244.107A13.164,13.164,0,0,0,10.193,3.1,8.745,8.745,0,0,1,10,1.25a8.676,8.676,0,0,1,3.406.687ZM9.445,4.926a10.035,10.035,0,0,0,3.728,4.629,11.183,11.183,0,0,1-.7,1.18,11.137,11.137,0,0,1-1.355,1.643,10.975,10.975,0,0,1-1,.883,1.409,1.409,0,0,0-1.631.318,11.024,11.024,0,0,1-2.347-.7,11.137,11.137,0,0,1-1.884-1.023c-.016-.012-.033-.021-.049-.033a11.645,11.645,0,0,1,.478-1.348A11.882,11.882,0,0,1,5.8,8.434q.234-.349.5-.682A1.4,1.4,0,0,0,8.123,6.41a1.4,1.4,0,0,0-.078-.465,11.576,11.576,0,0,1,1.01-.762c.127-.092.258-.176.391-.258ZM2.513,14.535A8.748,8.748,0,0,1,1.3,10.918,12.388,12.388,0,0,0,2.8,12.33a13.4,13.4,0,0,0-.287,2.205ZM2.624,10.5A11.1,11.1,0,0,1,1.316,8.924,8.743,8.743,0,0,1,8.748,1.338a10.049,10.049,0,0,0,.3,2.365A13.325,13.325,0,0,0,7.143,5.066a1.406,1.406,0,0,0-1.75,1.813A13.252,13.252,0,0,0,3.161,11C2.976,10.842,2.8,10.674,2.624,10.5Zm1.133,5.115c-.006-.152-.008-.3-.008-.459a12.164,12.164,0,0,1,.17-2.035A12.286,12.286,0,0,0,7.731,14.7l-.135.059a11.026,11.026,0,0,1-3.839.861Zm14.3-2.209a8.745,8.745,0,0,1-13.55,3.408,12.271,12.271,0,0,0,4.157-1.174,1.405,1.405,0,0,0,2.191-.646,12.3,12.3,0,0,0,7.657-2.979A8.7,8.7,0,0,1,18.059,13.406Z"/></svg>