<svg xmlns="http://www.w3.org/2000/svg" width="20.222" height="20.222" viewBox="0 0 20.222 20.222"><defs><style>.a{fill:#8178c7;}</style></defs><g transform="translate(0 0)"><path class="a" d="M67,56.889A10.111,10.111,0,1,0,77.111,67,10.141,10.141,0,0,0,67,56.889m0,18.959A8.847,8.847,0,1,1,75.847,67,8.793,8.793,0,0,1,67,75.847" transform="translate(-56.889 -56.889)"/><path class="a" d="M333.874,226.542a1.3,1.3,0,1,0,.885.379A1.147,1.147,0,0,0,333.874,226.542Zm.379-10.364a4.1,4.1,0,0,0-3.033,1.138,3.747,3.747,0,0,0-1.264,3.033h1.9a2.471,2.471,0,0,1,.506-1.769,1.968,1.968,0,0,1,1.769-.758,2.015,2.015,0,0,1,1.517.506,1.9,1.9,0,0,1,.506,1.39,1.623,1.623,0,0,1-.506,1.264l-.379.379a12.792,12.792,0,0,0-2.022,2.275,3.222,3.222,0,0,0-.253,1.643v.253h1.9v-.253a3.69,3.69,0,0,1,.253-1.138,1.7,1.7,0,0,1,.758-.885,9.043,9.043,0,0,0,1.517-1.39,2.921,2.921,0,0,0,.632-2.149,3.529,3.529,0,0,0-1.011-2.528A3.621,3.621,0,0,0,334.253,216.178Z" transform="translate(-323.889 -212.639)"/></g></svg>